<svg width="90" height="97" viewBox="0 0 90 97" fill="none" xmlns="http://www.w3.org/2000/svg">
<path d="M59.7425 16.77C63.9925 11.28 68.0126 5.75 72.3626 0.369997C72.4563 0.254197 72.5741 0.160891 72.7073 0.0968645C72.8406 0.0328384 72.9858 -0.000277025 73.1325 1.74553e-06H87.8825C88.1147 -8.9383e-05 88.3381 0.0814344 88.5125 0.229982C90.0392 1.48332 89.9992 2.75331 88.3925 4.03998C88.2107 4.17629 87.9897 4.25 87.7625 4.25H75.0725C74.9171 4.2502 74.7641 4.28543 74.6254 4.35303C74.4867 4.42063 74.366 4.51883 74.2725 4.64002C51.2192 34.6334 28.3292 64.7433 5.60258 94.97C4.24258 96.77 1.68255 96.9 1.45255 94.18C1.42696 93.9365 1.49489 93.6932 1.64249 93.5C21.0558 67.2667 40.4225 41.69 59.7425 16.77Z" fill="#4C40F7" fill-opacity="0.3"/>
<path d="M3.67648 77.2234C3.38052 77.6148 2.94126 77.8725 2.45529 77.9399C1.96931 78.0074 1.4765 77.879 1.08517 77.5831L0.734095 77.3177C0.540321 77.1711 0.377301 76.9879 0.254359 76.7783C0.131417 76.5688 0.0509347 76.337 0.0175427 76.0964C-0.0158494 75.8557 -0.00146279 75.6109 0.059779 75.3758C0.121021 75.1407 0.227924 74.92 0.374476 74.7262L50.8269 8.01628C51.1228 7.62497 51.5622 7.36723 52.0482 7.29979C52.5342 7.23236 53.027 7.36072 53.4183 7.65667L53.7694 7.92205C53.9632 8.06859 54.1262 8.25187 54.2491 8.46141C54.3721 8.67096 54.4524 8.90272 54.4858 9.14336C54.5192 9.384 54.5049 9.62884 54.4437 9.86394C54.3825 10.099 54.2754 10.3198 54.1289 10.5135L3.67648 77.2234Z" fill="#4C40F7" fill-opacity="0.3"/>
<path d="M20.0664 95.7692C19.9139 95.9716 19.723 96.142 19.5047 96.2707C19.2863 96.3993 19.0447 96.4836 18.7937 96.5189C18.5427 96.5542 18.2873 96.5396 18.0419 96.4762C17.7965 96.4127 17.5659 96.3016 17.3635 96.149L17.1239 95.9685C16.9215 95.816 16.7511 95.6251 16.6224 95.4067C16.4938 95.1883 16.4096 94.9468 16.3743 94.6958C16.339 94.4448 16.3534 94.1893 16.4169 93.9439C16.4803 93.6985 16.5915 93.468 16.744 93.2656L64.817 29.4706C64.9696 29.2682 65.1605 29.0978 65.3789 28.9692C65.5973 28.8405 65.8389 28.7562 66.0899 28.7209C66.3408 28.6857 66.5963 28.7002 66.8417 28.7636C67.0871 28.8271 67.3175 28.9383 67.5199 29.0908L67.7595 29.2713C67.962 29.4239 68.1324 29.6147 68.261 29.8331C68.3896 30.0515 68.474 30.2931 68.5093 30.5441C68.5446 30.7951 68.5301 31.0506 68.4667 31.2959C68.4032 31.5413 68.292 31.7718 68.1394 31.9742L20.0664 95.7692Z" fill="#4C40F7" fill-opacity="0.3"/>
</svg>
