<svg width="110" height="129" viewBox="0 0 110 129" fill="none" xmlns="http://www.w3.org/2000/svg">
<path d="M10.3391 5.65C10.3391 5.03935 10.2188 4.43469 9.9851 3.87052C9.75142 3.30636 9.4089 2.79375 8.97711 2.36195C8.54532 1.93016 8.0327 1.58764 7.46854 1.35396C6.90438 1.12028 6.29971 1 5.68906 1C4.45581 1 3.27306 1.48991 2.40102 2.36195C1.52897 3.234 1.03906 4.41674 1.03906 5.65C1.03906 6.88326 1.52897 8.066 2.40102 8.93805C3.27306 9.81009 4.45581 10.3 5.68906 10.3C6.29971 10.3 6.90438 10.1797 7.46854 9.94604C8.0327 9.71236 8.54532 9.36984 8.97711 8.93805C9.4089 8.50625 9.75142 7.99364 9.9851 7.42948C10.2188 6.86532 10.3391 6.26065 10.3391 5.65Z" stroke="#001133" stroke-width="0.5"/>
<path d="M30.6211 5.68994C30.6211 4.49647 30.147 3.35187 29.3031 2.50796C28.4592 1.66405 27.3146 1.18994 26.1211 1.18994C24.9276 1.18994 23.783 1.66405 22.9391 2.50796C22.0952 3.35187 21.6211 4.49647 21.6211 5.68994C21.6211 6.88342 22.0952 8.02801 22.9391 8.87192C23.783 9.71584 24.9276 10.1899 26.1211 10.1899C27.3146 10.1899 28.4592 9.71584 29.3031 8.87192C30.147 8.02801 30.6211 6.88342 30.6211 5.68994Z" stroke="#4C40F7" stroke-opacity="0.3" stroke-width="0.5"/>
<path d="M51.1402 5.64991C51.1402 4.45909 50.6671 3.31704 49.8251 2.475C48.983 1.63297 47.841 1.15991 46.6502 1.15991C46.0605 1.15991 45.4767 1.27605 44.9319 1.50169C44.3872 1.72734 43.8922 2.05807 43.4753 2.475C43.0583 2.89194 42.7276 3.38691 42.5019 3.93166C42.2763 4.47642 42.1602 5.06028 42.1602 5.64991C42.1602 6.23955 42.2763 6.82341 42.5019 7.36816C42.7276 7.91291 43.0583 8.40789 43.4753 8.82482C43.8922 9.24176 44.3872 9.57249 44.9319 9.79813C45.4767 10.0238 46.0605 10.1399 46.6502 10.1399C47.841 10.1399 48.983 9.66686 49.8251 8.82482C50.6671 7.98278 51.1402 6.84074 51.1402 5.64991Z" stroke="#4C40F7" stroke-opacity="0.3" stroke-width="0.5"/>
<path d="M89.6407 5.73002C89.6407 4.54716 89.1708 3.41274 88.3344 2.57632C87.498 1.73991 86.3636 1.27002 85.1807 1.27002C83.9978 1.27002 82.8634 1.73991 82.027 2.57632C81.1906 3.41274 80.7207 4.54716 80.7207 5.73002C80.7207 6.31572 80.8361 6.89568 81.0602 7.43679C81.2843 7.9779 81.6129 8.46957 82.027 8.88372C82.4412 9.29787 82.9328 9.62639 83.4739 9.85052C84.015 10.0747 84.595 10.19 85.1807 10.19C85.7664 10.19 86.3464 10.0747 86.8875 9.85052C87.4286 9.62639 87.9202 9.29787 88.3344 8.88372C88.7485 8.46957 89.0771 7.9779 89.3012 7.43679C89.5253 6.89568 89.6407 6.31572 89.6407 5.73002Z" stroke="#4C40F7" stroke-opacity="0.3" stroke-width="0.5"/>
<path d="M30.4298 25.2601C30.4298 24.0772 29.9599 22.9428 29.1235 22.1064C28.2871 21.2699 27.1526 20.8 25.9698 20.8C24.7869 20.8 23.6525 21.2699 22.8161 22.1064C21.9797 22.9428 21.5098 24.0772 21.5098 25.2601C21.5098 26.4429 21.9797 27.5773 22.8161 28.4137C23.6525 29.2502 24.7869 29.7201 25.9698 29.7201C27.1526 29.7201 28.2871 29.2502 29.1235 28.4137C29.9599 27.5773 30.4298 26.4429 30.4298 25.2601Z" stroke="#4C40F7" stroke-opacity="0.3" stroke-width="0.5"/>
<path d="M51.0406 25.2598C51.0406 24.6754 50.9255 24.0968 50.7019 23.5569C50.4783 23.017 50.1505 22.5264 49.7373 22.1132C49.324 21.7 48.8335 21.3722 48.2936 21.1485C47.7537 20.9249 47.175 20.8098 46.5906 20.8098C45.4104 20.8098 44.2785 21.2787 43.444 22.1132C42.6095 22.9477 42.1406 24.0796 42.1406 25.2598C42.1406 26.44 42.6095 27.5719 43.444 28.4064C44.2785 29.241 45.4104 29.7098 46.5906 29.7098C47.175 29.7098 47.7537 29.5947 48.2936 29.3711C48.8335 29.1474 49.324 28.8197 49.7373 28.4064C50.1505 27.9932 50.4783 27.5027 50.7019 26.9628C50.9255 26.4229 51.0406 25.8442 51.0406 25.2598Z" stroke="#4C40F7" stroke-opacity="0.3" stroke-width="0.5"/>
<path d="M10.1895 25.3399C10.1895 24.157 9.71964 23.0226 8.88323 22.1862C8.04682 21.3498 6.9124 20.8799 5.72953 20.8799C4.54667 20.8799 3.41225 21.3498 2.57584 22.1862C1.73942 23.0226 1.26953 24.157 1.26953 25.3399C1.26953 26.5227 1.73942 27.6572 2.57584 28.4936C3.41225 29.33 4.54667 29.7999 5.72953 29.7999C6.9124 29.7999 8.04682 29.33 8.88323 28.4936C9.71964 27.6572 10.1895 26.5227 10.1895 25.3399Z" stroke="#4C40F7" stroke-opacity="0.3" stroke-width="0.5"/>
<path d="M89.6807 25.2898C89.6807 24.1016 89.2087 22.9621 88.3685 22.122C87.5284 21.2818 86.3889 20.8098 85.2007 20.8098C84.0125 20.8098 82.873 21.2818 82.0329 22.122C81.1927 22.9621 80.7207 24.1016 80.7207 25.2898C80.7207 26.478 81.1927 27.6175 82.0329 28.4577C82.873 29.2978 84.0125 29.7698 85.2007 29.7698C86.3889 29.7698 87.5284 29.2978 88.3685 28.4577C89.2087 27.6175 89.6807 26.478 89.6807 25.2898Z" stroke="#4C40F7" stroke-opacity="0.3" stroke-width="0.5"/>
<path d="M69.8909 25.2999C69.8909 24.3372 69.5084 23.4139 68.8277 22.7331C68.1469 22.0524 67.2236 21.6699 66.2609 21.6699C65.2981 21.6699 64.3748 22.0524 63.6941 22.7331C63.0133 23.4139 62.6309 24.3372 62.6309 25.2999C62.6309 26.2627 63.0133 27.186 63.6941 27.8667C64.3748 28.5475 65.2981 28.9299 66.2609 28.9299C67.2236 28.9299 68.1469 28.5475 68.8277 27.8667C69.5084 27.186 69.8909 26.2627 69.8909 25.2999Z" stroke="#4C40F7" stroke-opacity="0.3" stroke-width="0.5"/>
<path d="M10.1592 44.7801C10.1592 43.5919 9.68722 42.4524 8.84706 41.6122C8.00689 40.7721 6.86739 40.3 5.67922 40.3C4.49105 40.3 3.35154 40.7721 2.51138 41.6122C1.67122 42.4524 1.19922 43.5919 1.19922 44.7801C1.19922 45.3684 1.3151 45.9509 1.54024 46.4945C1.76538 47.038 2.09537 47.5319 2.51138 47.9479C2.92739 48.3639 3.42126 48.6939 3.9648 48.919C4.50833 49.1442 5.0909 49.26 5.67922 49.26C6.26754 49.26 6.8501 49.1442 7.39364 48.919C7.93718 48.6939 8.43105 48.3639 8.84706 47.9479C9.26306 47.5319 9.59306 47.038 9.8182 46.4945C10.0433 45.9509 10.1592 45.3684 10.1592 44.7801Z" stroke="#4C40F7" stroke-opacity="0.3" stroke-width="0.5"/>
<path d="M30.6809 44.81C30.6809 43.5873 30.1952 42.4147 29.3307 41.5502C28.4662 40.6856 27.2936 40.2 26.0709 40.2C24.8483 40.2 23.6757 40.6856 22.8112 41.5502C21.9466 42.4147 21.4609 43.5873 21.4609 44.81C21.4609 46.0326 21.9466 47.2052 22.8112 48.0697C23.6757 48.9343 24.8483 49.42 26.0709 49.42C27.2936 49.42 28.4662 48.9343 29.3307 48.0697C30.1952 47.2052 30.6809 46.0326 30.6809 44.81Z" stroke="#001133" stroke-width="0.5"/>
<path d="M51.1193 44.8099C51.1193 44.2295 51.005 43.6547 50.7828 43.1184C50.5607 42.5822 50.2351 42.0949 49.8247 41.6845C49.4143 41.274 48.927 40.9485 48.3908 40.7263C47.8545 40.5042 47.2797 40.3899 46.6993 40.3899C45.527 40.3899 44.4028 40.8556 43.5739 41.6845C42.745 42.5134 42.2793 43.6376 42.2793 44.8099C42.2793 45.3903 42.3936 45.9651 42.6157 46.5014C42.8379 47.0376 43.1634 47.5249 43.5739 47.9353C43.9843 48.3457 44.4716 48.6713 45.0078 48.8934C45.5441 49.1156 46.1189 49.2299 46.6993 49.2299C47.2797 49.2299 47.8545 49.1156 48.3908 48.8934C48.927 48.6713 49.4143 48.3457 49.8247 47.9353C50.2351 47.5249 50.5607 47.0376 50.7828 46.5014C51.005 45.9651 51.1193 45.3903 51.1193 44.8099Z" stroke="#4C40F7" stroke-opacity="0.3" stroke-width="0.5"/>
<path d="M89.6105 44.8799C89.6105 43.7024 89.1427 42.573 88.31 41.7404C87.4774 40.9077 86.348 40.4399 85.1705 40.4399C83.9929 40.4399 82.8636 40.9077 82.0309 41.7404C81.1983 42.573 80.7305 43.7024 80.7305 44.8799C80.7305 46.0575 81.1983 47.1868 82.0309 48.0195C82.8636 48.8522 83.9929 49.3199 85.1705 49.3199C86.348 49.3199 87.4774 48.8522 88.31 48.0195C89.1427 47.1868 89.6105 46.0575 89.6105 44.8799Z" stroke="#4C40F7" stroke-opacity="0.3" stroke-width="0.5"/>
<path d="M89.9009 64.49C89.9009 63.8702 89.7789 63.2564 89.5416 62.6838C89.3044 62.1111 88.9568 61.5908 88.5185 61.1525C88.0802 60.7142 87.5599 60.3665 86.9872 60.1293C86.4145 59.8921 85.8008 59.77 85.1809 59.77C84.5611 59.77 83.9473 59.8921 83.3747 60.1293C82.802 60.3665 82.2817 60.7142 81.8434 61.1525C81.4051 61.5908 81.0574 62.1111 80.8202 62.6838C80.583 63.2564 80.4609 63.8702 80.4609 64.49C80.4609 65.7418 80.9582 66.9424 81.8434 67.8276C82.7286 68.7127 83.9291 69.21 85.1809 69.21C86.4328 69.21 87.6333 68.7127 88.5185 67.8276C89.4037 66.9424 89.9009 65.7418 89.9009 64.49Z" stroke="#001133" stroke-width="0.5"/>
<path d="M10.2007 64.46C10.2007 63.8703 10.0846 63.2865 9.85892 62.7417C9.63328 62.197 9.30255 61.702 8.88561 61.2851C8.46868 60.8681 7.9737 60.5374 7.42895 60.3118C6.8842 60.0861 6.30034 59.97 5.7107 59.97C5.12107 59.97 4.53721 60.0861 3.99245 60.3118C3.4477 60.5374 2.95273 60.8681 2.53579 61.2851C2.11886 61.702 1.78813 62.197 1.56248 62.7417C1.33684 63.2865 1.2207 63.8703 1.2207 64.46C1.2207 65.6508 1.69375 66.7928 2.53579 67.6349C3.37783 68.4769 4.51988 68.95 5.7107 68.95C6.90152 68.95 8.04357 68.4769 8.88561 67.6349C9.72765 66.7928 10.2007 65.6508 10.2007 64.46Z" stroke="#4C40F7" stroke-opacity="0.3" stroke-width="0.5"/>
<path d="M30.72 64.4899C30.72 63.2672 30.2343 62.0947 29.3698 61.2301C28.5052 60.3656 27.3326 59.8799 26.11 59.8799C24.8874 59.8799 23.7148 60.3656 22.8502 61.2301C21.9857 62.0947 21.5 63.2672 21.5 64.4899C21.5 65.7125 21.9857 66.8851 22.8502 67.7496C23.7148 68.6142 24.8874 69.0999 26.11 69.0999C27.3326 69.0999 28.5052 68.6142 29.3698 67.7496C30.2343 66.8851 30.72 65.7125 30.72 64.4899Z" stroke="#001133" stroke-width="0.5"/>
<path d="M51.0793 64.5299C51.0793 63.3629 50.6157 62.2438 49.7906 61.4186C48.9654 60.5934 47.8463 60.1299 46.6793 60.1299C45.5123 60.1299 44.3932 60.5934 43.568 61.4186C42.7429 62.2438 42.2793 63.3629 42.2793 64.5299C42.2793 65.6968 42.7429 66.816 43.568 67.6412C44.3932 68.4663 45.5123 68.9299 46.6793 68.9299C47.8463 68.9299 48.9654 68.4663 49.7906 67.6412C50.6157 66.816 51.0793 65.6968 51.0793 64.5299Z" stroke="#4C40F7" stroke-opacity="0.3" stroke-width="0.5"/>
<path d="M30.7907 84.16C30.7907 82.9241 30.2997 81.7388 29.4258 80.8649C28.5519 79.991 27.3666 79.5 26.1307 79.5C25.5187 79.5 24.9128 79.6205 24.3474 79.8547C23.782 80.0889 23.2683 80.4322 22.8356 80.8649C22.4029 81.2976 22.0596 81.8113 21.8254 82.3767C21.5912 82.9421 21.4707 83.548 21.4707 84.16C21.4707 84.772 21.5912 85.3779 21.8254 85.9433C22.0596 86.5087 22.4029 87.0224 22.8356 87.4551C23.2683 87.8878 23.782 88.2311 24.3474 88.4653C24.9128 88.6995 25.5187 88.82 26.1307 88.82C26.7427 88.82 27.3486 88.6995 27.914 88.4653C28.4794 88.2311 28.9931 87.8878 29.4258 87.4551C29.8585 87.0224 30.2018 86.5087 30.436 85.9433C30.6702 85.3779 30.7907 84.772 30.7907 84.16Z" stroke="#001133" stroke-width="0.5"/>
<path d="M89.8708 84.2198C89.8708 82.9839 89.3798 81.7986 88.5059 80.9247C87.632 80.0508 86.4467 79.5598 85.2108 79.5598C83.9749 79.5598 82.7896 80.0508 81.9157 80.9247C81.0417 81.7986 80.5508 82.9839 80.5508 84.2198C80.5508 85.4557 81.0417 86.641 81.9157 87.5149C82.7896 88.3889 83.9749 88.8798 85.2108 88.8798C86.4467 88.8798 87.632 88.3889 88.5059 87.5149C89.3798 86.641 89.8708 85.4557 89.8708 84.2198Z" stroke="#001133" stroke-width="0.5"/>
<path d="M10.1792 84.25C10.1792 83.0592 9.70617 81.9171 8.86413 81.0751C8.02209 80.2331 6.88004 79.76 5.68922 79.76C4.4984 79.76 3.35635 80.2331 2.51431 81.0751C1.67227 81.9171 1.19922 83.0592 1.19922 84.25C1.19922 84.8397 1.31536 85.4235 1.541 85.9683C1.76664 86.513 2.09737 87.008 2.51431 87.4249C2.93124 87.8419 3.42622 88.1726 3.97097 88.3982C4.51572 88.6239 5.09958 88.74 5.68922 88.74C6.27885 88.74 6.86272 88.6239 7.40747 88.3982C7.95222 88.1726 8.44719 87.8419 8.86413 87.4249C9.28106 87.008 9.61179 86.513 9.83744 85.9683C10.0631 85.4235 10.1792 84.8397 10.1792 84.25Z" stroke="#4C40F7" stroke-opacity="0.3" stroke-width="0.5"/>
<path d="M51.07 84.19C51.07 83.6109 50.9559 83.0374 50.7343 82.5024C50.5127 81.9673 50.1878 81.4812 49.7783 81.0717C49.3688 80.6622 48.8827 80.3373 48.3476 80.1157C47.8126 79.8941 47.2391 79.78 46.66 79.78C45.4904 79.78 44.3687 80.2447 43.5417 81.0717C42.7146 81.8987 42.25 83.0204 42.25 84.19C42.25 85.3596 42.7146 86.4813 43.5417 87.3084C44.3687 88.1354 45.4904 88.6 46.66 88.6C47.2391 88.6 47.8126 88.486 48.3476 88.2643C48.8827 88.0427 49.3688 87.7179 49.7783 87.3084C50.1878 86.8989 50.5127 86.4127 50.7343 85.8777C50.9559 85.3426 51.07 84.7692 51.07 84.19Z" stroke="#4C40F7" stroke-opacity="0.3" stroke-width="0.5"/>
<path d="M109.651 83.56C109.651 82.5522 109.25 81.5856 108.538 80.873C107.825 80.1604 106.859 79.76 105.851 79.76C104.843 79.76 103.876 80.1604 103.164 80.873C102.451 81.5856 102.051 82.5522 102.051 83.56C102.051 84.5678 102.451 85.5344 103.164 86.247C103.876 86.9597 104.843 87.36 105.851 87.36C106.859 87.36 107.825 86.9597 108.538 86.247C109.25 85.5344 109.651 84.5678 109.651 83.56Z" stroke="#001133" stroke-width="0.5"/>
<path d="M69.9494 83.8299C69.9494 82.8672 69.567 81.9439 68.8862 81.2632C68.2055 80.5824 67.2822 80.2 66.3195 80.2C65.8428 80.2 65.3707 80.2938 64.9303 80.4763C64.4899 80.6587 64.0897 80.9261 63.7527 81.2632C63.4156 81.6002 63.1482 82.0004 62.9658 82.4408C62.7833 82.8812 62.6895 83.3533 62.6895 83.8299C62.6895 84.3066 62.7833 84.7787 62.9658 85.2191C63.1482 85.6595 63.4156 86.0597 63.7527 86.3968C64.0897 86.7338 64.4899 87.0012 64.9303 87.1836C65.3707 87.3661 65.8428 87.46 66.3195 87.46C67.2822 87.46 68.2055 87.0775 68.8862 86.3968C69.567 85.716 69.9494 84.7927 69.9494 83.8299Z" stroke="#4C40F7" stroke-opacity="0.3" stroke-width="0.5"/>
<path d="M30.8595 103.89C30.8595 102.651 30.3675 101.464 29.4917 100.588C28.6159 99.712 27.4281 99.22 26.1895 99.22C24.951 99.22 23.7631 99.712 22.8873 100.588C22.0115 101.464 21.5195 102.651 21.5195 103.89C21.5195 104.503 21.6403 105.111 21.875 105.677C22.1097 106.244 22.4537 106.759 22.8873 107.192C23.321 107.626 23.8358 107.97 24.4024 108.204C24.969 108.439 25.5763 108.56 26.1895 108.56C26.8028 108.56 27.4101 108.439 27.9767 108.204C28.5433 107.97 29.0581 107.626 29.4917 107.192C29.9254 106.759 30.2694 106.244 30.504 105.677C30.7387 105.111 30.8595 104.503 30.8595 103.89Z" stroke="#001133" stroke-width="0.5"/>
<path d="M51.3295 103.8C51.3295 102.588 50.848 101.426 49.9909 100.569C49.1339 99.7115 47.9715 99.23 46.7595 99.23C45.5474 99.23 44.385 99.7115 43.528 100.569C42.6709 101.426 42.1895 102.588 42.1895 103.8C42.1895 105.012 42.6709 106.174 43.528 107.031C44.385 107.889 45.5474 108.37 46.7595 108.37C47.9715 108.37 49.1339 107.889 49.9909 107.031C50.848 106.174 51.3295 105.012 51.3295 103.8Z" stroke="#001133" stroke-width="0.5"/>
<path d="M89.8502 103.97C89.8502 102.729 89.3572 101.538 88.4795 100.661C87.6018 99.7829 86.4114 99.2898 85.1702 99.2898C83.929 99.2898 82.7386 99.7829 81.861 100.661C80.9833 101.538 80.4902 102.729 80.4902 103.97C80.4902 105.211 80.9833 106.401 81.861 107.279C82.7386 108.157 83.929 108.65 85.1702 108.65C86.4114 108.65 87.6018 108.157 88.4795 107.279C89.3572 106.401 89.8502 105.211 89.8502 103.97Z" stroke="#001133" stroke-width="0.5"/>
<path d="M10.2006 103.89C10.2006 103.295 10.0835 102.706 9.8558 102.156C9.62814 101.607 9.29447 101.107 8.87382 100.687C8.45317 100.266 7.95379 99.9323 7.40418 99.7047C6.85458 99.477 6.26551 99.3599 5.67062 99.3599C5.07574 99.3599 4.48667 99.477 3.93707 99.7047C3.38746 99.9323 2.88808 100.266 2.46743 100.687C2.04678 101.107 1.7131 101.607 1.48545 102.156C1.2578 102.706 1.14062 103.295 1.14062 103.89C1.14062 105.091 1.61789 106.244 2.46743 107.093C3.31697 107.943 4.46919 108.42 5.67062 108.42C6.87205 108.42 8.02428 107.943 8.87382 107.093C9.72336 106.244 10.2006 105.091 10.2006 103.89Z" stroke="#4C40F7" stroke-opacity="0.3" stroke-width="0.5"/>
<path d="M10.32 123.76C10.32 122.524 9.82904 121.339 8.95512 120.465C8.0812 119.591 6.89591 119.1 5.66 119.1C4.42409 119.1 3.2388 119.591 2.36488 120.465C1.49096 121.339 1 122.524 1 123.76C1 124.996 1.49096 126.181 2.36488 127.055C3.2388 127.929 4.42409 128.42 5.66 128.42C6.89591 128.42 8.0812 127.929 8.95512 127.055C9.82904 126.181 10.32 124.996 10.32 123.76Z" stroke="#001133" stroke-width="0.5"/>
<path d="M30.7706 123.76C30.7706 122.516 30.2765 121.323 29.397 120.444C28.5174 119.564 27.3245 119.07 26.0806 119.07C24.8368 119.07 23.6438 119.564 22.7643 120.444C21.8847 121.323 21.3906 122.516 21.3906 123.76C21.3906 125.004 21.8847 126.197 22.7643 127.076C23.6438 127.956 24.8368 128.45 26.0806 128.45C27.3245 128.45 28.5174 127.956 29.397 127.076C30.2765 126.197 30.7706 125.004 30.7706 123.76Z" stroke="#001133" stroke-width="0.5"/>
<path d="M89.8405 123.76C89.8405 123.145 89.7194 122.537 89.4842 121.969C89.249 121.401 88.9043 120.885 88.4697 120.451C88.0352 120.016 87.5192 119.671 86.9514 119.436C86.3836 119.201 85.7751 119.08 85.1605 119.08C84.5459 119.08 83.9373 119.201 83.3695 119.436C82.8017 119.671 82.2858 120.016 81.8512 120.451C81.4166 120.885 81.0719 121.401 80.8367 121.969C80.6015 122.537 80.4805 123.145 80.4805 123.76C80.4805 124.374 80.6015 124.983 80.8367 125.551C81.0719 126.119 81.4166 126.635 81.8512 127.069C82.2858 127.504 82.8017 127.848 83.3695 128.084C83.9373 128.319 84.5459 128.44 85.1605 128.44C85.7751 128.44 86.3836 128.319 86.9514 128.084C87.5192 127.848 88.0352 127.504 88.4697 127.069C88.9043 126.635 89.249 126.119 89.4842 125.551C89.7194 124.983 89.8405 124.374 89.8405 123.76Z" stroke="#001133" stroke-width="0.5"/>
<path d="M10.3391 5.65C10.3391 6.26065 10.2188 6.86532 9.9851 7.42948C9.75142 7.99364 9.4089 8.50625 8.97711 8.93805C8.54532 9.36984 8.0327 9.71236 7.46854 9.94604C6.90438 10.1797 6.29971 10.3 5.68906 10.3C4.45581 10.3 3.27306 9.81009 2.40102 8.93805C1.52897 8.066 1.03906 6.88326 1.03906 5.65C1.03906 4.41674 1.52897 3.234 2.40102 2.36195C3.27306 1.48991 4.45581 1 5.68906 1C6.29971 1 6.90438 1.12028 7.46854 1.35396C8.0327 1.58764 8.54532 1.93016 8.97711 2.36195C9.4089 2.79375 9.75142 3.30636 9.9851 3.87052C10.2188 4.43469 10.3391 5.03935 10.3391 5.65Z" fill="#001133"/>
<path d="M30.6191 5.68994C30.6191 6.88342 30.145 8.02801 29.3011 8.87192C28.4572 9.71584 27.3126 10.1899 26.1191 10.1899C24.9257 10.1899 23.7811 9.71584 22.9372 8.87192C22.0932 8.02801 21.6191 6.88342 21.6191 5.68994C21.6191 4.49647 22.0932 3.35187 22.9372 2.50796C23.7811 1.66405 24.9257 1.18994 26.1191 1.18994C27.3126 1.18994 28.4572 1.66405 29.3011 2.50796C30.145 3.35187 30.6191 4.49647 30.6191 5.68994Z" fill="#4C40F7" fill-opacity="0.3"/>
<path d="M51.1402 5.64991C51.1402 6.84074 50.6671 7.98278 49.8251 8.82482C48.983 9.66686 47.841 10.1399 46.6502 10.1399C46.0605 10.1399 45.4767 10.0238 44.9319 9.79813C44.3872 9.57249 43.8922 9.24176 43.4753 8.82482C43.0583 8.40789 42.7276 7.91291 42.5019 7.36816C42.2763 6.82341 42.1602 6.23955 42.1602 5.64991C42.1602 5.06028 42.2763 4.47642 42.5019 3.93166C42.7276 3.38691 43.0583 2.89194 43.4753 2.475C43.8922 2.05807 44.3872 1.72734 44.9319 1.50169C45.4767 1.27605 46.0605 1.15991 46.6502 1.15991C47.841 1.15991 48.983 1.63297 49.8251 2.475C50.6671 3.31704 51.1402 4.45909 51.1402 5.64991Z" fill="#4C40F7" fill-opacity="0.3"/>
<path d="M89.6407 5.73002C89.6407 6.31572 89.5253 6.89568 89.3012 7.43679C89.0771 7.9779 88.7485 8.46957 88.3344 8.88372C87.9202 9.29787 87.4286 9.62638 86.8875 9.85052C86.3464 10.0747 85.7664 10.19 85.1807 10.19C84.595 10.19 84.015 10.0747 83.4739 9.85052C82.9328 9.62638 82.4412 9.29787 82.027 8.88372C81.6129 8.46957 81.2843 7.9779 81.0602 7.43679C80.8361 6.89568 80.7207 6.31572 80.7207 5.73002C80.7207 4.54715 81.1906 3.41274 82.027 2.57632C82.8634 1.73991 83.9978 1.27002 85.1807 1.27002C86.3636 1.27002 87.498 1.73991 88.3344 2.57632C89.1708 3.41274 89.6407 4.54715 89.6407 5.73002Z" fill="#4C40F7" fill-opacity="0.3"/>
<path d="M30.4298 25.2601C30.4298 26.4429 29.9599 27.5773 29.1235 28.4137C28.2871 29.2502 27.1526 29.7201 25.9698 29.7201C24.7869 29.7201 23.6525 29.2502 22.8161 28.4137C21.9797 27.5773 21.5098 26.4429 21.5098 25.2601C21.5098 24.0772 21.9797 22.9428 22.8161 22.1064C23.6525 21.2699 24.7869 20.8 25.9698 20.8C27.1526 20.8 28.2871 21.2699 29.1235 22.1064C29.9599 22.9428 30.4298 24.0772 30.4298 25.2601Z" fill="#4C40F7" fill-opacity="0.3"/>
<path d="M51.0406 25.2598C51.0406 25.8442 50.9255 26.4229 50.7019 26.9628C50.4783 27.5027 50.1505 27.9932 49.7373 28.4064C49.324 28.8197 48.8335 29.1474 48.2936 29.3711C47.7537 29.5947 47.175 29.7098 46.5906 29.7098C45.4104 29.7098 44.2785 29.241 43.444 28.4064C42.6095 27.5719 42.1406 26.44 42.1406 25.2598C42.1406 24.0796 42.6095 22.9477 43.444 22.1132C44.2785 21.2787 45.4104 20.8098 46.5906 20.8098C47.175 20.8098 47.7537 20.9249 48.2936 21.1485C48.8335 21.3722 49.324 21.7 49.7373 22.1132C50.1505 22.5264 50.4783 23.017 50.7019 23.5569C50.9255 24.0968 51.0406 24.6754 51.0406 25.2598Z" fill="#4C40F7" fill-opacity="0.3"/>
<path d="M10.1895 25.3399C10.1895 26.5227 9.71964 27.6572 8.88323 28.4936C8.04682 29.33 6.9124 29.7999 5.72953 29.7999C4.54667 29.7999 3.41225 29.33 2.57584 28.4936C1.73942 27.6572 1.26953 26.5227 1.26953 25.3399C1.26953 24.157 1.73942 23.0226 2.57584 22.1862C3.41225 21.3498 4.54667 20.8799 5.72953 20.8799C6.9124 20.8799 8.04682 21.3498 8.88323 22.1862C9.71964 23.0226 10.1895 24.157 10.1895 25.3399Z" fill="#4C40F7" fill-opacity="0.3"/>
<path d="M89.6807 25.2898C89.6807 26.478 89.2087 27.6175 88.3685 28.4577C87.5284 29.2978 86.3889 29.7698 85.2007 29.7698C84.0125 29.7698 82.873 29.2978 82.0329 28.4577C81.1927 27.6175 80.7207 26.478 80.7207 25.2898C80.7207 24.1016 81.1927 22.9621 82.0329 22.122C82.873 21.2818 84.0125 20.8098 85.2007 20.8098C86.3889 20.8098 87.5284 21.2818 88.3685 22.122C89.2087 22.9621 89.6807 24.1016 89.6807 25.2898Z" fill="#4C40F7" fill-opacity="0.3"/>
<path d="M69.8909 25.2999C69.8909 26.2627 69.5084 27.186 68.8277 27.8667C68.1469 28.5475 67.2236 28.9299 66.2609 28.9299C65.2981 28.9299 64.3748 28.5475 63.6941 27.8667C63.0133 27.186 62.6309 26.2627 62.6309 25.2999C62.6309 24.3372 63.0133 23.4139 63.6941 22.7331C64.3748 22.0524 65.2981 21.6699 66.2609 21.6699C67.2236 21.6699 68.1469 22.0524 68.8277 22.7331C69.5084 23.4139 69.8909 24.3372 69.8909 25.2999Z" fill="#4C40F7" fill-opacity="0.3"/>
<path d="M10.1592 44.7801C10.1592 45.3684 10.0433 45.9509 9.8182 46.4945C9.59306 47.038 9.26306 47.5319 8.84706 47.9479C8.43105 48.3639 7.93718 48.6939 7.39364 48.919C6.8501 49.1442 6.26754 49.26 5.67922 49.26C5.0909 49.26 4.50833 49.1442 3.9648 48.919C3.42126 48.6939 2.92739 48.3639 2.51138 47.9479C2.09537 47.5319 1.76538 47.038 1.54024 46.4945C1.3151 45.9509 1.19922 45.3684 1.19922 44.7801C1.19922 43.5919 1.67122 42.4524 2.51138 41.6122C3.35154 40.7721 4.49105 40.3 5.67922 40.3C6.86739 40.3 8.00689 40.7721 8.84706 41.6122C9.68722 42.4524 10.1592 43.5919 10.1592 44.7801Z" fill="#4C40F7" fill-opacity="0.3"/>
<path d="M30.6809 44.81C30.6809 46.0326 30.1952 47.2052 29.3307 48.0697C28.4662 48.9343 27.2936 49.42 26.0709 49.42C24.8483 49.42 23.6757 48.9343 22.8112 48.0697C21.9466 47.2052 21.4609 46.0326 21.4609 44.81C21.4609 43.5873 21.9466 42.4147 22.8112 41.5502C23.6757 40.6856 24.8483 40.2 26.0709 40.2C27.2936 40.2 28.4662 40.6856 29.3307 41.5502C30.1952 42.4147 30.6809 43.5873 30.6809 44.81Z" fill="#001133"/>
<path d="M51.1193 44.8099C51.1193 45.3903 51.005 45.9651 50.7828 46.5014C50.5607 47.0376 50.2351 47.5249 49.8247 47.9353C49.4143 48.3457 48.927 48.6713 48.3908 48.8934C47.8545 49.1156 47.2797 49.2299 46.6993 49.2299C46.1189 49.2299 45.5441 49.1156 45.0078 48.8934C44.4716 48.6713 43.9843 48.3457 43.5739 47.9353C43.1634 47.5249 42.8379 47.0376 42.6157 46.5014C42.3936 45.9651 42.2793 45.3903 42.2793 44.8099C42.2793 43.6376 42.745 42.5134 43.5739 41.6845C44.4028 40.8556 45.527 40.3899 46.6993 40.3899C47.2797 40.3899 47.8545 40.5042 48.3908 40.7263C48.927 40.9485 49.4143 41.274 49.8247 41.6845C50.2351 42.0949 50.5607 42.5822 50.7828 43.1184C51.005 43.6547 51.1193 44.2295 51.1193 44.8099Z" fill="#4C40F7" fill-opacity="0.3"/>
<path d="M89.6105 44.8799C89.6105 46.0575 89.1427 47.1868 88.31 48.0195C87.4774 48.8522 86.348 49.3199 85.1705 49.3199C83.9929 49.3199 82.8636 48.8522 82.0309 48.0195C81.1983 47.1868 80.7305 46.0575 80.7305 44.8799C80.7305 43.7024 81.1983 42.573 82.0309 41.7404C82.8636 40.9077 83.9929 40.4399 85.1705 40.4399C86.348 40.4399 87.4774 40.9077 88.31 41.7404C89.1427 42.573 89.6105 43.7024 89.6105 44.8799Z" fill="#4C40F7" fill-opacity="0.3"/>
<path d="M89.9009 64.49C89.9009 65.7418 89.4037 66.9424 88.5185 67.8276C87.6333 68.7127 86.4328 69.21 85.1809 69.21C83.9291 69.21 82.7286 68.7127 81.8434 67.8276C80.9582 66.9424 80.4609 65.7418 80.4609 64.49C80.4609 63.8702 80.583 63.2564 80.8202 62.6838C81.0574 62.1111 81.4051 61.5908 81.8434 61.1525C82.2817 60.7142 82.802 60.3665 83.3747 60.1293C83.9473 59.8921 84.5611 59.77 85.1809 59.77C85.8008 59.77 86.4145 59.8921 86.9872 60.1293C87.5599 60.3665 88.0802 60.7142 88.5185 61.1525C88.9568 61.5908 89.3044 62.1111 89.5416 62.6838C89.7789 63.2564 89.9009 63.8702 89.9009 64.49Z" fill="#001133"/>
<path d="M10.2007 64.46C10.2007 65.6508 9.72765 66.7928 8.88561 67.6349C8.04357 68.4769 6.90153 68.95 5.7107 68.95C4.51988 68.95 3.37783 68.4769 2.53579 67.6349C1.69375 66.7928 1.2207 65.6508 1.2207 64.46C1.2207 63.8703 1.33684 63.2865 1.56248 62.7417C1.78813 62.197 2.11886 61.702 2.53579 61.2851C2.95273 60.8681 3.4477 60.5374 3.99245 60.3118C4.53721 60.0861 5.12107 59.97 5.7107 59.97C6.30034 59.97 6.8842 60.0861 7.42895 60.3118C7.9737 60.5374 8.46868 60.8681 8.88561 61.2851C9.30255 61.702 9.63328 62.197 9.85892 62.7417C10.0846 63.2865 10.2007 63.8703 10.2007 64.46Z" fill="#4C40F7" fill-opacity="0.3"/>
<path d="M30.72 64.4899C30.72 65.7125 30.2343 66.8851 29.3698 67.7496C28.5052 68.6142 27.3326 69.0999 26.11 69.0999C24.8874 69.0999 23.7148 68.6142 22.8502 67.7496C21.9857 66.8851 21.5 65.7125 21.5 64.4899C21.5 63.2672 21.9857 62.0947 22.8502 61.2301C23.7148 60.3656 24.8874 59.8799 26.11 59.8799C27.3326 59.8799 28.5052 60.3656 29.3698 61.2301C30.2343 62.0947 30.72 63.2672 30.72 64.4899Z" fill="#001133"/>
<path d="M51.0793 64.5299C51.0793 65.6968 50.6157 66.816 49.7906 67.6412C48.9654 68.4663 47.8463 68.9299 46.6793 68.9299C45.5123 68.9299 44.3932 68.4663 43.568 67.6412C42.7429 66.816 42.2793 65.6968 42.2793 64.5299C42.2793 63.3629 42.7429 62.2438 43.568 61.4186C44.3932 60.5934 45.5123 60.1299 46.6793 60.1299C47.8463 60.1299 48.9654 60.5934 49.7906 61.4186C50.6157 62.2438 51.0793 63.3629 51.0793 64.5299Z" fill="#4C40F7" fill-opacity="0.3"/>
<path d="M30.7907 84.16C30.7907 84.772 30.6702 85.3779 30.436 85.9433C30.2018 86.5087 29.8585 87.0224 29.4258 87.4551C28.9931 87.8878 28.4794 88.2311 27.914 88.4653C27.3486 88.6995 26.7427 88.82 26.1307 88.82C25.5187 88.82 24.9128 88.6995 24.3474 88.4653C23.782 88.2311 23.2683 87.8878 22.8356 87.4551C22.4029 87.0224 22.0596 86.5087 21.8254 85.9433C21.5912 85.3779 21.4707 84.772 21.4707 84.16C21.4707 83.548 21.5912 82.9421 21.8254 82.3767C22.0596 81.8113 22.4029 81.2976 22.8356 80.8649C23.2683 80.4322 23.782 80.0889 24.3474 79.8547C24.9128 79.6205 25.5187 79.5 26.1307 79.5C27.3666 79.5 28.5519 79.991 29.4258 80.8649C30.2997 81.7388 30.7907 82.9241 30.7907 84.16Z" fill="#001133"/>
<path d="M89.8708 84.2198C89.8708 85.4557 89.3798 86.641 88.5059 87.5149C87.632 88.3889 86.4467 88.8798 85.2108 88.8798C83.9749 88.8798 82.7896 88.3889 81.9157 87.5149C81.0417 86.641 80.5508 85.4557 80.5508 84.2198C80.5508 82.9839 81.0417 81.7986 81.9157 80.9247C82.7896 80.0508 83.9749 79.5598 85.2108 79.5598C86.4467 79.5598 87.632 80.0508 88.5059 80.9247C89.3798 81.7986 89.8708 82.9839 89.8708 84.2198Z" fill="#001133"/>
<path d="M10.1792 84.25C10.1792 84.8397 10.0631 85.4235 9.83744 85.9683C9.6118 86.513 9.28106 87.008 8.86413 87.4249C8.44719 87.8419 7.95222 88.1726 7.40747 88.3982C6.86271 88.6239 6.27885 88.74 5.68922 88.74C5.09958 88.74 4.51572 88.6239 3.97097 88.3982C3.42622 88.1726 2.93124 87.8419 2.51431 87.4249C2.09737 87.008 1.76664 86.513 1.541 85.9683C1.31536 85.4235 1.19922 84.8397 1.19922 84.25C1.19922 83.0592 1.67227 81.9171 2.51431 81.0751C3.35635 80.2331 4.4984 79.76 5.68922 79.76C6.88004 79.76 8.02209 80.2331 8.86413 81.0751C9.70617 81.9171 10.1792 83.0592 10.1792 84.25Z" fill="#4C40F7" fill-opacity="0.3"/>
<path d="M51.07 84.19C51.07 84.7692 50.9559 85.3426 50.7343 85.8777C50.5127 86.4127 50.1878 86.8989 49.7783 87.3084C49.3688 87.7179 48.8827 88.0427 48.3476 88.2643C47.8126 88.486 47.2391 88.6 46.66 88.6C45.4904 88.6 44.3687 88.1354 43.5417 87.3084C42.7146 86.4813 42.25 85.3596 42.25 84.19C42.25 83.0204 42.7146 81.8987 43.5417 81.0717C44.3687 80.2447 45.4904 79.78 46.66 79.78C47.2391 79.78 47.8126 79.8941 48.3476 80.1157C48.8827 80.3373 49.3688 80.6622 49.7783 81.0717C50.1878 81.4812 50.5127 81.9673 50.7343 82.5024C50.9559 83.0374 51.07 83.6109 51.07 84.19Z" fill="#4C40F7" fill-opacity="0.3"/>
<path d="M109.651 83.56C109.651 84.5678 109.25 85.5344 108.538 86.247C107.825 86.9597 106.859 87.36 105.851 87.36C104.843 87.36 103.876 86.9597 103.164 86.247C102.451 85.5344 102.051 84.5678 102.051 83.56C102.051 82.5522 102.451 81.5856 103.164 80.873C103.876 80.1604 104.843 79.76 105.851 79.76C106.859 79.76 107.825 80.1604 108.538 80.873C109.25 81.5856 109.651 82.5522 109.651 83.56Z" fill="#001133"/>
<path d="M69.9494 83.8299C69.9494 84.7927 69.567 85.716 68.8862 86.3968C68.2055 87.0775 67.2822 87.46 66.3195 87.46C65.8428 87.46 65.3707 87.3661 64.9303 87.1836C64.4899 87.0012 64.0897 86.7338 63.7527 86.3968C63.4156 86.0597 63.1482 85.6595 62.9658 85.2191C62.7833 84.7787 62.6895 84.3066 62.6895 83.8299C62.6895 83.3533 62.7833 82.8812 62.9658 82.4408C63.1482 82.0004 63.4156 81.6002 63.7527 81.2632C64.0897 80.9261 64.4899 80.6587 64.9303 80.4763C65.3707 80.2938 65.8428 80.2 66.3195 80.2C67.2822 80.2 68.2055 80.5824 68.8862 81.2632C69.567 81.9439 69.9494 82.8672 69.9494 83.8299Z" fill="#4C40F7" fill-opacity="0.3"/>
<path d="M30.8595 103.89C30.8595 104.503 30.7387 105.111 30.504 105.677C30.2694 106.244 29.9254 106.759 29.4917 107.192C29.0581 107.626 28.5433 107.97 27.9767 108.204C27.4101 108.439 26.8028 108.56 26.1895 108.56C25.5763 108.56 24.969 108.439 24.4024 108.204C23.8358 107.97 23.321 107.626 22.8873 107.192C22.4537 106.759 22.1097 106.244 21.875 105.677C21.6403 105.111 21.5195 104.503 21.5195 103.89C21.5195 102.651 22.0115 101.464 22.8873 100.588C23.7631 99.712 24.951 99.22 26.1895 99.22C27.4281 99.22 28.6159 99.712 29.4917 100.588C30.3675 101.464 30.8595 102.651 30.8595 103.89Z" fill="#001133"/>
<path d="M51.3295 103.8C51.3295 105.012 50.848 106.174 49.9909 107.031C49.1339 107.889 47.9715 108.37 46.7595 108.37C45.5474 108.37 44.385 107.889 43.528 107.031C42.6709 106.174 42.1895 105.012 42.1895 103.8C42.1895 102.588 42.6709 101.426 43.528 100.569C44.385 99.7115 45.5474 99.23 46.7595 99.23C47.9715 99.23 49.1339 99.7115 49.9909 100.569C50.848 101.426 51.3295 102.588 51.3295 103.8Z" fill="#001133"/>
<path d="M89.8502 103.97C89.8502 105.211 89.3572 106.401 88.4795 107.279C87.6018 108.157 86.4114 108.65 85.1702 108.65C83.929 108.65 82.7386 108.157 81.861 107.279C80.9833 106.401 80.4902 105.211 80.4902 103.97C80.4902 102.729 80.9833 101.538 81.861 100.661C82.7386 99.7829 83.929 99.2898 85.1702 99.2898C86.4114 99.2898 87.6018 99.7829 88.4795 100.661C89.3572 101.538 89.8502 102.729 89.8502 103.97Z" fill="#001133"/>
<path d="M10.2006 103.89C10.2006 105.092 9.72336 106.244 8.87382 107.093C8.02428 107.943 6.87205 108.42 5.67062 108.42C4.46919 108.42 3.31697 107.943 2.46743 107.093C1.61789 106.244 1.14062 105.092 1.14062 103.89C1.14062 103.295 1.2578 102.706 1.48545 102.157C1.7131 101.607 2.04678 101.108 2.46743 100.687C2.88808 100.266 3.38746 99.9326 3.93707 99.7049C4.48667 99.4773 5.07574 99.3601 5.67062 99.3601C6.26551 99.3601 6.85458 99.4773 7.40418 99.7049C7.95379 99.9326 8.45317 100.266 8.87382 100.687C9.29447 101.108 9.62814 101.607 9.8558 102.157C10.0835 102.706 10.2006 103.295 10.2006 103.89Z" fill="#4C40F7" fill-opacity="0.3"/>
<path d="M10.32 123.76C10.32 124.996 9.82904 126.181 8.95512 127.055C8.0812 127.929 6.89591 128.42 5.66 128.42C4.42409 128.42 3.2388 127.929 2.36488 127.055C1.49096 126.181 1 124.996 1 123.76C1 122.524 1.49096 121.339 2.36488 120.465C3.2388 119.591 4.42409 119.1 5.66 119.1C6.89591 119.1 8.0812 119.591 8.95512 120.465C9.82904 121.339 10.32 122.524 10.32 123.76Z" fill="#001133"/>
<path d="M30.7706 123.76C30.7706 125.004 30.2765 126.197 29.397 127.076C28.5174 127.956 27.3245 128.45 26.0806 128.45C24.8368 128.45 23.6438 127.956 22.7643 127.076C21.8847 126.197 21.3906 125.004 21.3906 123.76C21.3906 122.516 21.8847 121.323 22.7643 120.444C23.6438 119.564 24.8368 119.07 26.0806 119.07C27.3245 119.07 28.5174 119.564 29.397 120.444C30.2765 121.323 30.7706 122.516 30.7706 123.76Z" fill="#001133"/>
<path d="M89.8405 123.76C89.8405 124.374 89.7194 124.983 89.4842 125.551C89.249 126.119 88.9043 126.635 88.4697 127.069C88.0352 127.504 87.5192 127.848 86.9514 128.084C86.3836 128.319 85.7751 128.44 85.1605 128.44C84.5459 128.44 83.9373 128.319 83.3695 128.084C82.8017 127.848 82.2858 127.504 81.8512 127.069C81.4166 126.635 81.0719 126.119 80.8367 125.551C80.6015 124.983 80.4805 124.374 80.4805 123.76C80.4805 123.145 80.6015 122.537 80.8367 121.969C81.0719 121.401 81.4166 120.885 81.8512 120.451C82.2858 120.016 82.8017 119.671 83.3695 119.436C83.9373 119.201 84.5459 119.08 85.1605 119.08C85.7751 119.08 86.3836 119.201 86.9514 119.436C87.5192 119.671 88.0352 120.016 88.4697 120.451C88.9043 120.885 89.249 121.401 89.4842 121.969C89.7194 122.537 89.8405 123.145 89.8405 123.76Z" fill="#001133"/>
</svg>
