<svg width="215" height="124" viewBox="0 0 215 124" fill="none" xmlns="http://www.w3.org/2000/svg">
<path d="M2.88 3.82999C2.87334 33.4633 2.75323 63.0966 2.5199 92.73C2.5099 93.94 1.70995 94.85 0.569946 93.92C0.454475 93.8262 0.361366 93.7075 0.297363 93.5726C0.23336 93.4377 0.200077 93.2899 0.199951 93.14L0 1.01999C0 0.754773 0.10531 0.500433 0.292847 0.312897C0.480383 0.12536 0.734784 0.019989 1 0.019989C33.1333 0.0333223 65.26 0.0266667 97.38 0C100.95 0 100.74 2.79999 97.21 2.79999C66.1033 2.73332 34.9933 2.74332 3.88 2.82999C3.61479 2.82999 3.36039 2.93536 3.17285 3.12289C2.98532 3.31043 2.88 3.56477 2.88 3.82999Z" fill="#5041D5" fill-opacity="0.2"/>
<path d="M148.071 25.75L27.1108 25.77C26.8456 25.77 26.5912 25.8754 26.4037 26.0629C26.2162 26.2504 26.1108 26.5048 26.1108 26.77C26.0642 49.9633 26.0541 73.1366 26.0808 96.29C26.0808 97.71 25.5108 99.55 23.6908 98.16C23.5692 98.0665 23.4708 97.9466 23.4032 97.8096C23.3356 97.6726 23.3005 97.5222 23.3008 97.37L23.1309 23.74C23.1309 23.4748 23.2362 23.2204 23.4237 23.0329C23.6112 22.8453 23.8656 22.74 24.1309 22.74L150.821 22.84C151.086 22.84 151.34 22.9453 151.528 23.1329C151.715 23.3204 151.821 23.5748 151.821 23.84V81.77C151.821 82.0352 151.715 82.2895 151.528 82.4771C151.34 82.6646 151.086 82.77 150.821 82.77H67.3208C67.0556 82.77 66.8012 82.8754 66.6136 83.0629C66.4261 83.2504 66.3208 83.5048 66.3208 83.77V89.05C66.3211 89.2828 66.2398 89.5091 66.0908 89.69C64.8108 91.24 63.8408 89.92 63.8108 88.51C63.7508 86.0633 63.7908 83.63 63.9308 81.21C63.9461 80.9553 64.0582 80.7161 64.2441 80.5414C64.43 80.3666 64.6756 80.2695 64.9308 80.27H148.071C148.336 80.27 148.59 80.1646 148.778 79.9771C148.965 79.7895 149.071 79.5352 149.071 79.27V26.75C149.071 26.4848 148.965 26.2304 148.778 26.0429C148.59 25.8553 148.336 25.75 148.071 25.75Z" fill="#5041D5" fill-opacity="0.2"/>
<path d="M212.479 123.79C151.529 123.67 110.469 123.68 64.799 123.77C64.666 123.77 64.5343 123.744 64.4117 123.692C64.2891 123.641 64.1779 123.565 64.0848 123.47C63.9917 123.375 63.9184 123.263 63.8693 123.139C63.8203 123.015 63.7964 122.883 63.799 122.75L64.019 111.87C64.021 111.752 64.0491 111.635 64.101 111.529C64.153 111.422 64.2276 111.329 64.3194 111.255C64.4113 111.182 64.5181 111.129 64.6322 111.103C64.7462 111.076 64.8648 111.075 64.9791 111.1L65.269 111.17C65.4861 111.216 65.6816 111.333 65.8247 111.501C65.9677 111.67 66.0502 111.88 66.059 112.1L66.3791 120.28C66.3894 120.538 66.5004 120.783 66.6887 120.962C66.877 121.141 67.1279 121.24 67.389 121.24C115.489 121.067 163.589 121.11 211.689 121.37C212.869 121.37 215.939 121.81 213.019 123.64C212.855 123.738 212.668 123.79 212.479 123.79Z" fill="#5041D5" fill-opacity="0.2"/>
</svg>
